<svg width="24" height="24" viewBox="0 0 24 24" fill="none" xmlns="http://www.w3.org/2000/svg">
<mask id="mask0_9506_37" style="mask-type:alpha" maskUnits="userSpaceOnUse" x="0" y="0" width="24" height="24">
<rect width="24" height="24" fill="#D9D9D9"/>
</mask>
<g mask="url(#mask0_9506_37)">
<path d="M12 16.75C12.2167 16.75 12.396 16.6793 12.538 16.538C12.6793 16.396 12.75 16.2167 12.75 16V12.75H16C16.2167 12.75 16.396 12.679 16.538 12.537C16.6793 12.3957 16.75 12.2167 16.75 12C16.75 11.7833 16.6793 11.604 16.538 11.462C16.396 11.3207 16.2167 11.25 16 11.25H12.75V8C12.75 7.78333 12.6793 7.60433 12.538 7.463C12.396 7.321 12.2167 7.25 12 7.25C11.7833 7.25 11.6043 7.321 11.463 7.463C11.321 7.60433 11.25 7.78333 11.25 8V11.25H8C7.78333 11.25 7.60433 11.3207 7.463 11.462C7.321 11.604 7.25 11.7833 7.25 12C7.25 12.2167 7.321 12.3957 7.463 12.537C7.60433 12.679 7.78333 12.75 8 12.75H11.25V16C11.25 16.2167 11.321 16.396 11.463 16.538C11.6043 16.6793 11.7833 16.75 12 16.75ZM5.3 20.5C4.8 20.5 4.375 20.325 4.025 19.975C3.675 19.625 3.5 19.2 3.5 18.7V5.3C3.5 4.8 3.675 4.375 4.025 4.025C4.375 3.675 4.8 3.5 5.3 3.5H18.7C19.2 3.5 19.625 3.675 19.975 4.025C20.325 4.375 20.5 4.8 20.5 5.3V18.7C20.5 19.2 20.325 19.625 19.975 19.975C19.625 20.325 19.2 20.5 18.7 20.5H5.3ZM5.3 19H18.7C18.7833 19 18.8543 18.971 18.913 18.913C18.971 18.8543 19 18.7833 19 18.7V5.3C19 5.21667 18.971 5.146 18.913 5.088C18.8543 5.02933 18.7833 5 18.7 5H5.3C5.21667 5 5.146 5.02933 5.088 5.088C5.02933 5.146 5 5.21667 5 5.3V18.7C5 18.7833 5.02933 18.8543 5.088 18.913C5.146 18.971 5.21667 19 5.3 19Z" fill="#C2C2C8"/>
</g>
</svg>
