<svg width="24" height="24" viewBox="0 0 24 24" fill="none" xmlns="http://www.w3.org/2000/svg">
<mask id="mask0_9506_410" style="mask-type:alpha" maskUnits="userSpaceOnUse" x="0" y="0" width="24" height="24">
<rect width="24" height="24" fill="#D9D9D9"/>
</mask>
<g mask="url(#mask0_9506_410)">
<path d="M8 12.75H16C16.2167 12.75 16.396 12.679 16.538 12.537C16.6793 12.3957 16.75 12.2167 16.75 12C16.75 11.7833 16.6793 11.604 16.538 11.462C16.396 11.3207 16.2167 11.25 16 11.25H8C7.78333 11.25 7.60433 11.3207 7.463 11.462C7.321 11.604 7.25 11.7833 7.25 12C7.25 12.2167 7.321 12.3957 7.463 12.537C7.60433 12.679 7.78333 12.75 8 12.75ZM5.3 20.5C4.8 20.5 4.375 20.325 4.025 19.975C3.675 19.625 3.5 19.2 3.5 18.7V5.3C3.5 4.8 3.675 4.375 4.025 4.025C4.375 3.675 4.8 3.5 5.3 3.5H18.7C19.2 3.5 19.625 3.675 19.975 4.025C20.325 4.375 20.5 4.8 20.5 5.3V18.7C20.5 19.2 20.325 19.625 19.975 19.975C19.625 20.325 19.2 20.5 18.7 20.5H5.3Z" fill="#00CCCC"/>
</g>
</svg>
