<svg width="62" height="32" viewBox="0 0 62 32" fill="none" xmlns="http://www.w3.org/2000/svg">
<path d="M13.8966 21.9103V27.9523H12.6246V21.9103C12.6246 20.2249 11.6706 19.2709 10.2714 19.2709C8.68141 19.2709 7.60021 20.3203 7.60021 22.5781V27.9205H6.32821V21.8785C6.32821 20.1931 5.46961 19.2391 4.07041 19.2391C2.5122 19.3027 1.272 20.3521 1.272 22.6099V27.9523H0V18.2851H1.272V19.7161C1.9716 18.6031 2.9574 18.0625 4.22941 18.0625C5.62861 18.0625 6.61441 18.6349 7.15501 19.8115C7.85461 18.6349 8.90401 18.0625 10.2714 18.0625C12.4656 18.0625 13.8966 19.5571 13.8966 21.9103Z" fill="black"/>
<path d="M49.7353 19.7477C50.6257 20.7653 51.0709 21.9419 51.0709 23.3093C51.0709 23.4047 51.0391 23.6909 51.0391 23.7863H42.2941C42.4213 24.8675 42.8347 25.7261 43.5979 26.4257C44.3611 27.0935 45.2833 27.4115 46.3963 27.4115C47.9545 27.4115 49.1311 26.7119 49.7353 25.6625L50.5939 26.1713C49.7989 27.5069 48.2407 28.3655 46.3963 28.3655C44.9017 28.3655 43.6933 27.8885 42.7393 26.9663C41.7853 26.0123 41.3083 24.8039 41.3083 23.3411C41.3083 21.8783 41.7853 20.7017 42.7075 19.7477C43.6615 18.7937 44.8381 18.2849 46.3327 18.2849C47.7001 18.2531 48.8449 18.7619 49.7353 19.7477ZM43.5343 20.1929C42.8029 20.8607 42.3895 21.7511 42.2623 22.8323H50.0215C49.9261 21.6875 49.5127 20.7971 48.7813 20.1611C48.0817 19.4933 47.2231 19.1753 46.2373 19.1753C45.1879 19.1753 44.2657 19.5251 43.5343 20.1929Z" fill="black"/>
<path d="M59.3706 18.444H60.42L56.2542 29.0016C55.491 30.9096 54.06 32.118 52.4382 31.9908V31.0686C53.6784 31.164 54.696 30.3054 55.3002 28.8108L55.5228 28.302L51.0708 18.4758H52.1202L56.0316 27.0618L59.3706 18.444Z" fill="black"/>
<path d="M38.0964 0H17.4263C16.2497 0 15.2957 0.954001 15.2957 2.1306V28.9062C15.2957 30.0828 16.2497 31.0368 17.4263 31.0368H38.0964C39.273 31.0368 40.227 30.0828 40.227 28.9062V2.1306C40.227 0.954001 39.273 0 38.0964 0ZM39.2094 28.8108C39.2094 29.3832 38.7324 29.8602 38.16 29.8602H17.3627C16.7903 29.8602 16.3133 29.3832 16.3133 28.8108V2.067C16.3133 1.4946 16.7903 1.0176 17.3627 1.0176H38.16C38.7324 1.0176 39.2094 1.4946 39.2094 2.067V28.8108Z" fill="#00CCCC"/>
<path d="M22.5143 28.2066C21.0833 28.2066 19.8749 27.7296 18.8891 26.7438C17.9033 25.758 17.4263 24.5496 17.4263 23.1186C17.4263 21.6876 17.9033 20.4792 18.8891 19.4934C19.8749 18.5076 21.0833 17.9988 22.5143 17.9988C23.9453 17.9988 25.1537 18.5076 26.1395 19.4934C27.1253 20.4792 27.6341 21.6876 27.6341 23.1186C27.6341 24.5496 27.1253 25.758 26.1395 26.7438C25.1855 27.7296 23.9453 28.2066 22.5143 28.2066Z" fill="#00CCCC"/>
<path d="M22.5143 25.7897C23.2775 25.7897 23.8817 25.5353 24.3905 25.0265C24.8993 24.5177 25.1537 23.8817 25.1537 23.1185C25.1537 22.3553 24.8993 21.7193 24.3905 21.2105C23.8817 20.7017 23.2775 20.4473 22.5143 20.4473C21.7511 20.4473 21.1469 20.7017 20.6381 21.2105C20.1611 21.7193 19.9067 22.3553 19.9067 23.1185C19.9067 23.8817 20.1611 24.5177 20.6381 25.0265C21.1469 25.5353 21.7829 25.7897 22.5143 25.7897Z" fill="#00CCCC"/>
<path d="M36.9834 19.08C37.683 19.7796 38.0328 20.7654 38.0328 22.0056V27.9204H35.5524V22.3236C35.5524 21.0198 34.7892 20.3202 33.6444 20.3202C32.3406 20.3202 31.5138 21.1152 31.5138 22.7052V27.9204H29.0334V18.285H31.5138V19.3662C32.118 18.444 33.072 17.9988 34.3758 17.9988C35.457 18.0306 36.3156 18.3804 36.9834 19.08Z" fill="#00CCCC"/>
<path d="M19.2389 4.76996C18.9209 4.45196 18.9209 3.94316 19.2389 3.59336C19.5569 3.27536 20.0657 3.27536 20.4155 3.59336C20.7335 3.91136 20.7335 4.42016 20.4155 4.76996C20.0657 5.08796 19.5569 5.08796 19.2389 4.76996ZM19.2707 6.83696H20.4155V15.423H19.2707V6.83696Z" fill="#00CCCC"/>
<path d="M26.9981 7.95009H24.5177V13.1335C24.5177 14.5963 25.3445 14.5009 26.9981 14.4055V15.3913C24.5813 15.7411 23.4047 15.1051 23.4047 13.1017V7.95009H21.5921V6.83709H23.4047V4.77009L24.5495 4.42029V6.83709H27.0299V7.95009H26.9981Z" fill="#00CCCC"/>
<path d="M30.5917 3.40271L29.5741 7.25052H28.5565L29.2243 3.40271H30.5917Z" fill="#00CCCC"/>
<path d="M33.7715 10.5576C35.2025 10.9074 37.0151 11.3208 37.0151 13.1653C37.0151 13.8967 36.7289 14.5009 36.1247 14.9461C35.5523 15.4231 34.7891 15.6457 33.8987 15.6457C32.2451 15.6457 31.0367 14.8507 30.5915 13.6741L31.5455 13.1017C31.8635 13.9921 32.7539 14.5327 33.8987 14.5327C35.0117 14.5327 35.8703 14.0875 35.8703 13.1653C35.8703 12.402 35.0753 11.9568 34.0895 11.7024C32.6585 11.3526 30.8459 10.9392 30.8459 9.09484C30.8459 8.39524 31.1321 7.82284 31.6727 7.34584C32.2451 6.86884 32.9447 6.64624 33.7715 6.64624C35.1707 6.64624 36.2837 7.31404 36.7607 8.39524L35.8067 8.93584C35.4887 8.14084 34.7891 7.72744 33.7397 7.72744C32.7539 7.72744 31.9271 8.20444 31.9271 9.09484C32.0225 9.85805 32.7857 10.2714 33.7715 10.5576Z" fill="#00CCCC"/>
</svg>
